<svg xmlns="http://www.w3.org/2000/svg" viewBox="0 0 1366 768"><path d="M684.65 503.3c0 81.1-65.74 146.83-146.83 146.83-81.1 0-146.83-65.74-146.83-146.83s65.74-146.83 146.83-146.83S684.65 422.2 684.65 503.3z" fill="#ffd42f"/><path d="M654.56 503.3c0 64.47-52.27 116.73-116.73 116.73-64.48 0-116.74-52.27-116.74-116.73 0-64.47 52.26-116.74 116.74-116.74 64.46 0 116.73 52.26 116.73 116.74z" fill="#ffeaa5"/><path d="M489.97 546.7l14.53-16.74c8.46 8.34 18.7 12.5 30.72 12.5 6.5 0 11.56-1.26 15.18-3.77s5.43-6.04 5.43-10.58c0-3.92-1.35-7-4.05-9.2s-7.18-4-13.43-5.34l-11.22-2.4c-10.43-2.45-18.6-6.93-24.56-13.43s-8.92-14.3-8.92-23.37c0-9.44 2.97-17.5 8.92-24.2s13.9-11 23.83-12.97v-19.7h23v19.32c12.5 1.96 21.83 6.93 27.97 14.9l-13.98 16c-2.7-2.58-6.1-4.57-10.2-5.98s-8.5-2.12-13.15-2.12c-6.13 0-10.92 1.23-14.35 3.68-3.44 2.46-5.15 5.9-5.15 10.3 0 7 5.03 11.6 15.1 13.8l11.6 2.76c23.43 5.28 35.14 17.54 35.14 36.8 0 9.8-2.94 18.06-8.83 24.74-5.9 6.7-13.92 11.07-24.1 13.16v19.87h-23v-18.95c-7.6-.98-14.53-3.1-20.8-6.35-6.28-3.24-11.5-7.5-15.66-12.78z" fill="#ffd42f"/><path d="M1078.63 632.67H137.58" fill="#d6e2e8"/></svg>